<svg width="173" height="30" viewBox="0 0 173 30" fill="none" xmlns="http://www.w3.org/2000/svg">
<path d="M0.28125 27.7188C0.260417 27.3021 0.265625 26.8802 0.296875 26.4531C0.328125 26.026 0.348958 25.5781 0.359375 25.1094L0 7.125C0 6.42708 0.119792 5.89583 0.359375 5.53125C0.609375 5.15625 0.958333 4.96875 1.40625 4.96875C1.8125 4.96875 2.13021 4.97917 2.35938 5C2.58854 5.02083 2.79167 5.04167 2.96875 5.0625C3.07292 5.08333 3.17708 5.09375 3.28125 5.09375C3.38542 5.09375 3.49479 5.09375 3.60938 5.09375H12.2344C13.1094 5.09375 13.724 5.21354 14.0781 5.45312C14.4427 5.69271 14.625 6.07812 14.625 6.60938C14.625 6.97396 14.5729 7.27083 14.4688 7.5C14.375 7.72917 14.2292 7.91146 14.0312 8.04688C13.8333 8.18229 13.5833 8.27604 13.2812 8.32812C12.9896 8.36979 12.6458 8.39062 12.25 8.39062L3.64062 8.375L3.73438 14.3125C4.89062 14.3125 5.92188 14.3125 6.82812 14.3125C7.74479 14.3021 8.55729 14.2917 9.26562 14.2812C9.98438 14.2708 10.6094 14.2604 11.1406 14.25C11.6823 14.2292 12.1562 14.2135 12.5625 14.2031C12.6667 14.2031 12.7656 14.2031 12.8594 14.2031C12.9531 14.1927 13.0417 14.1875 13.125 14.1875C13.3021 14.1771 13.4792 14.1719 13.6562 14.1719C13.8438 14.1719 13.9948 14.1719 14.1094 14.1719C14.3906 14.1719 14.6406 14.2292 14.8594 14.3438C15.0781 14.4479 15.2604 14.5885 15.4062 14.7656C15.5625 14.9323 15.6771 15.1198 15.75 15.3281C15.8333 15.526 15.875 15.7135 15.875 15.8906C15.875 16.4427 15.6875 16.8542 15.3125 17.125C14.9375 17.3854 14.4635 17.5156 13.8906 17.5156L3.73438 17.5312V25.3906C3.73438 25.599 3.75 25.8073 3.78125 26.0156C3.82292 26.2135 3.86458 26.4167 3.90625 26.625C3.95833 26.8229 4.00521 27.026 4.04688 27.2344C4.08854 27.4427 4.10938 27.6562 4.10938 27.875C4.10938 28.1458 4.07812 28.3958 4.01562 28.625C3.95312 28.8438 3.83854 29.0365 3.67188 29.2031C3.51562 29.3594 3.30208 29.4792 3.03125 29.5625C2.76042 29.6562 2.41667 29.7031 2 29.7031C1.4375 29.7031 1.01042 29.5469 0.71875 29.2344C0.427083 28.9115 0.28125 28.4062 0.28125 27.7188ZM25.0312 7.71875C24.7812 7.83333 24.5208 7.89062 24.25 7.89062C23.9792 7.88021 23.7292 7.82292 23.5 7.71875C23.2812 7.60417 23.0885 7.44271 22.9219 7.23438C22.7552 7.02604 22.651 6.77604 22.6094 6.48438C22.5781 6.28646 22.5833 6.0625 22.625 5.8125C22.6771 5.55208 22.7396 5.29167 22.8125 5.03125C22.8958 4.76042 22.9688 4.5 23.0312 4.25C23.1042 3.98958 23.151 3.75521 23.1719 3.54688C23.2031 3.07812 23.3438 2.6875 23.5938 2.375C23.8438 2.0625 24.2188 1.86979 24.7188 1.79688C25.0833 1.73438 25.4271 1.75521 25.75 1.85938C26.0729 1.96354 26.3125 2.19271 26.4688 2.54688C26.5208 2.66146 26.5625 2.79688 26.5938 2.95312C26.6354 3.09896 26.6667 3.22917 26.6875 3.34375C26.6979 3.44792 26.6927 3.57812 26.6719 3.73438C26.6615 3.89062 26.6354 4.05729 26.5938 4.23438C26.5521 4.40104 26.5 4.57292 26.4375 4.75C26.3854 4.91667 26.3333 5.0625 26.2812 5.1875C26.1979 5.36458 26.1406 5.55729 26.1094 5.76562C26.0885 5.96354 26.0625 6.14583 26.0312 6.3125C26 6.47917 25.9688 6.63021 25.9375 6.76562C25.9062 6.90104 25.8542 7.02604 25.7812 7.14062C25.7188 7.25521 25.625 7.35938 25.5 7.45312C25.3854 7.54688 25.2292 7.63542 25.0312 7.71875ZM22.3594 28.0781C22.3594 27.8177 22.3698 27.599 22.3906 27.4219C22.4219 27.2448 22.4479 27.0521 22.4688 26.8438C22.5 26.625 22.526 26.3698 22.5469 26.0781C22.5781 25.7865 22.5938 25.3906 22.5938 24.8906C22.5938 23.026 22.5885 21.1771 22.5781 19.3438C22.5677 17.5 22.5417 15.5521 22.5 13.5C22.3438 13.5104 22.1667 13.5208 21.9688 13.5312C21.7708 13.5417 21.5625 13.5521 21.3438 13.5625C21.1354 13.5625 20.9323 13.5677 20.7344 13.5781C20.5365 13.5781 20.3594 13.5781 20.2031 13.5781C20.0156 13.5781 19.8229 13.5521 19.625 13.5C19.4375 13.4375 19.2656 13.3385 19.1094 13.2031C18.9531 13.0677 18.8229 12.8958 18.7188 12.6875C18.6146 12.4688 18.5625 12.2031 18.5625 11.8906C18.5625 11.3385 18.7083 10.9219 19 10.6406C19.3021 10.349 19.6562 10.2031 20.0625 10.2031C20.4583 10.2031 20.849 10.224 21.2344 10.2656C21.6302 10.2969 22.0156 10.3125 22.3906 10.3125C22.776 10.3125 23.1615 10.2969 23.5469 10.2656C23.9323 10.224 24.2969 10.2031 24.6406 10.2031C25.1719 10.2031 25.5521 10.3438 25.7812 10.625C26.0104 10.9062 26.125 11.2969 26.125 11.7969C26.125 12.224 26.0885 12.6458 26.0156 13.0625C25.9427 13.4688 25.9062 13.9062 25.9062 14.375C25.9062 15.3125 25.901 16.2552 25.8906 17.2031C25.8802 18.151 25.8698 19.1146 25.8594 20.0938C25.8594 21.0729 25.8542 22.0729 25.8438 23.0938C25.8438 24.1146 25.8542 25.1667 25.875 26.25C26.0417 26.2396 26.1927 26.2135 26.3281 26.1719C26.4635 26.1302 26.5938 26.0885 26.7188 26.0469C26.8438 25.9948 26.974 25.9531 27.1094 25.9219C27.2552 25.8802 27.4167 25.8594 27.5938 25.8594C27.8646 25.8594 28.0833 25.8906 28.25 25.9531C28.4271 26.0156 28.5677 26.1042 28.6719 26.2188C28.776 26.3229 28.8542 26.4583 28.9062 26.625C28.9583 26.7812 29.0052 26.9531 29.0469 27.1406C29.1198 27.6302 29 28.0208 28.6875 28.3125C28.375 28.6042 27.9479 28.8333 27.4062 29C27.0938 29.0833 26.7708 29.1667 26.4375 29.25C26.1146 29.3333 25.8073 29.4062 25.5156 29.4688C25.224 29.5417 24.9583 29.599 24.7188 29.6406C24.4792 29.6823 24.2917 29.7031 24.1562 29.7031C23.5417 29.7031 23.0885 29.5573 22.7969 29.2656C22.5052 28.9844 22.3594 28.5885 22.3594 28.0781ZM34.9531 28.0938C34.9531 27.9062 34.9583 27.7135 34.9688 27.5156C34.9896 27.3177 35.0104 27.125 35.0312 26.9375C35.0625 26.6562 35.0938 26.349 35.125 26.0156C35.1562 25.6823 35.1719 25.3073 35.1719 24.8906C35.1719 24.0781 35.1667 23.3125 35.1562 22.5938C35.1562 21.8646 35.1458 21.1146 35.125 20.3438C35.125 20.3229 35.125 20.2917 35.125 20.25C35.125 20.1979 35.1198 20.099 35.1094 19.9531C35.1094 19.8073 35.1042 19.5938 35.0938 19.3125C35.0938 19.0312 35.0885 18.6354 35.0781 18.125C35.0677 17.6146 35.0521 16.9792 35.0312 16.2188C35.0208 15.4479 35.0052 14.5104 34.9844 13.4062C34.849 13.4271 34.6875 13.4479 34.5 13.4688C34.3229 13.4792 34.1094 13.4844 33.8594 13.4844C33.6719 13.4844 33.4792 13.4531 33.2812 13.3906C33.0938 13.3281 32.9167 13.2344 32.75 13.1094C32.5938 12.974 32.4635 12.8021 32.3594 12.5938C32.2656 12.375 32.2188 12.1094 32.2188 11.7969C32.2188 11.2344 32.3594 10.8125 32.6406 10.5312C32.9323 10.2396 33.2865 10.0938 33.7031 10.0938C33.8698 10.0938 34.0312 10.1146 34.1875 10.1562C34.3438 10.1979 34.5104 10.2188 34.6875 10.2188C34.8958 10.2188 35.1094 10.2135 35.3281 10.2031C35.5469 10.1927 35.7604 10.1771 35.9688 10.1562C36.1979 10.1354 36.4219 10.1198 36.6406 10.1094C36.8698 10.099 37.0729 10.0938 37.25 10.0938C37.6771 10.0938 38.0312 10.2344 38.3125 10.5156C38.5938 10.7969 38.7344 11.1927 38.7344 11.7031C38.7344 11.8281 38.7292 11.974 38.7188 12.1406C38.7188 12.3073 38.7083 12.4688 38.6875 12.625C39.0417 12.2812 39.4427 11.9531 39.8906 11.6406C40.3385 11.3281 40.8229 11.0521 41.3438 10.8125C41.875 10.5625 42.4427 10.3646 43.0469 10.2188C43.651 10.0729 44.2917 10 44.9688 10C46.2917 10 47.4479 10.2188 48.4375 10.6562C49.4375 11.0833 50.2708 11.7083 50.9375 12.5312C51.6146 13.3438 52.1198 14.3438 52.4531 15.5312C52.7969 16.7188 52.9688 18.0677 52.9688 19.5781C52.9688 20.0365 52.9375 20.5156 52.875 21.0156C52.8125 21.5156 52.724 22.0156 52.6094 22.5156C52.5052 23.0156 52.375 23.5156 52.2188 24.0156C52.0729 24.5052 51.9062 24.9688 51.7188 25.4062C51.9583 25.3333 52.1875 25.2708 52.4062 25.2188C52.625 25.1667 52.8073 25.1302 52.9531 25.1094C54.1198 24.9948 54.7031 25.526 54.7031 26.7031C54.7031 26.849 54.6875 27.0104 54.6562 27.1875C54.625 27.3542 54.5625 27.5208 54.4688 27.6875C54.375 27.8438 54.2448 27.9948 54.0781 28.1406C53.9115 28.276 53.6979 28.3906 53.4375 28.4844L51.75 28.875C51.2292 29.0312 50.8073 29.1615 50.4844 29.2656C50.1719 29.3802 49.9062 29.4688 49.6875 29.5312C49.4792 29.6042 49.3021 29.651 49.1562 29.6719C49.0104 29.7031 48.849 29.7135 48.6719 29.7031C48.4219 29.7031 48.2031 29.6406 48.0156 29.5156C47.8281 29.401 47.6719 29.2552 47.5469 29.0781C47.4219 28.8906 47.3281 28.6875 47.2656 28.4688C47.2031 28.25 47.1719 28.0365 47.1719 27.8281C47.1719 27.4948 47.2188 27.1562 47.3125 26.8125C47.4062 26.4688 47.5729 26.1562 47.8125 25.875C48.1042 25.5 48.349 25.0781 48.5469 24.6094C48.7552 24.1406 48.9219 23.6354 49.0469 23.0938C49.1719 22.5521 49.2604 21.9844 49.3125 21.3906C49.375 20.7969 49.4062 20.1927 49.4062 19.5781C49.4062 18.8698 49.3281 18.151 49.1719 17.4219C49.026 16.6823 48.7708 16.0156 48.4062 15.4219C48.0521 14.8177 47.5781 14.3281 46.9844 13.9531C46.401 13.5677 45.6667 13.375 44.7812 13.375C44.1667 13.375 43.5625 13.474 42.9688 13.6719C42.3854 13.8594 41.8229 14.1146 41.2812 14.4375C40.75 14.75 40.25 15.1094 39.7812 15.5156C39.3125 15.9219 38.901 16.3385 38.5469 16.7656C38.5365 17.2344 38.526 17.7083 38.5156 18.1875C38.5156 18.6562 38.5156 19.1302 38.5156 19.6094C38.4948 20.4219 38.4792 21.2292 38.4688 22.0312C38.4583 22.8333 38.4531 23.6458 38.4531 24.4688C38.4531 24.7083 38.4531 24.9531 38.4531 25.2031C38.4531 25.4427 38.4635 25.6979 38.4844 25.9688L38.9062 25.8438C39.0208 25.8125 39.1302 25.7865 39.2344 25.7656C39.349 25.7344 39.4479 25.7188 39.5312 25.7188C40.0938 25.7188 40.5208 25.8594 40.8125 26.1406C41.1042 26.4115 41.25 26.8125 41.25 27.3438C41.25 27.7396 41.1719 28.0573 41.0156 28.2969C40.8594 28.526 40.6615 28.7083 40.4219 28.8438C40.1823 28.9688 39.9167 29.0573 39.625 29.1094C39.3438 29.1615 39.0677 29.2031 38.7969 29.2344C38.651 29.2552 38.5104 29.2708 38.375 29.2812C38.2396 29.3021 38.125 29.3281 38.0312 29.3594C37.6979 29.4531 37.4115 29.5312 37.1719 29.5938C36.9323 29.6667 36.724 29.7031 36.5469 29.7031C35.9323 29.7031 35.5104 29.5625 35.2812 29.2812C35.0625 29 34.9531 28.6042 34.9531 28.0938ZM57.6562 19.875C57.6562 18.4583 57.8958 17.1406 58.375 15.9219C58.8542 14.7031 59.5104 13.6458 60.3438 12.75C61.1875 11.8542 62.1719 11.151 63.2969 10.6406C64.4323 10.1302 65.6562 9.875 66.9688 9.875C67.6354 9.875 68.2708 9.95312 68.875 10.1094C69.4896 10.2656 70.0573 10.474 70.5781 10.7344C71.1094 10.9844 71.5833 11.2708 72 11.5938C72.4271 11.9167 72.7917 12.25 73.0938 12.5938C73.0833 12.4479 73.0781 12.2917 73.0781 12.125C73.0781 11.9583 73.0781 11.8125 73.0781 11.6875C73.0781 11.4271 73.1146 11.1875 73.1875 10.9688C73.2604 10.7396 73.375 10.5417 73.5312 10.375C73.6875 10.2083 73.8854 10.0781 74.125 9.98438C74.3646 9.88021 74.6562 9.82812 75 9.82812C75.2917 9.82812 75.5521 9.88542 75.7812 10C76.0208 10.1042 76.224 10.2396 76.3906 10.4062C76.5573 10.5625 76.6875 10.7344 76.7812 10.9219C76.875 11.099 76.9219 11.2604 76.9219 11.4062C76.9219 11.7604 76.901 12.1198 76.8594 12.4844C76.8281 12.8385 76.8021 13.1979 76.7812 13.5625C76.7812 14.7083 76.7708 15.724 76.75 16.6094C76.7396 17.4844 76.724 18.2917 76.7031 19.0312C76.6823 19.5312 76.6667 20.0521 76.6562 20.5938C76.6458 21.125 76.6406 21.6146 76.6406 22.0625C76.6406 23.0729 76.6406 23.875 76.6406 24.4688C76.6406 25.0625 76.6667 25.4948 76.7188 25.7656C76.8125 25.7448 76.9479 25.6979 77.125 25.625C77.3125 25.5521 77.4844 25.474 77.6406 25.3906C77.7865 25.3385 77.9323 25.2865 78.0781 25.2344C78.224 25.1823 78.4062 25.1562 78.625 25.1562C78.875 25.1562 79.0938 25.2135 79.2812 25.3281C79.4688 25.4323 79.625 25.5729 79.75 25.75C79.8854 25.9167 79.9844 26.1094 80.0469 26.3281C80.1094 26.5365 80.1406 26.7396 80.1406 26.9375C80.1406 27.2188 80.0729 27.5052 79.9375 27.7969C79.8021 28.0781 79.5521 28.2812 79.1875 28.4062C78.875 28.5208 78.5573 28.6406 78.2344 28.7656C77.9115 28.8906 77.5833 29.0052 77.25 29.1094C76.9271 29.2135 76.599 29.3021 76.2656 29.375C75.9427 29.4479 75.6094 29.4844 75.2656 29.4844C74.8594 29.4844 74.526 29.401 74.2656 29.2344C74.0052 29.0677 73.8021 28.8542 73.6562 28.5938C73.5104 28.3229 73.4062 28.026 73.3438 27.7031C73.2812 27.3802 73.2448 27.0625 73.2344 26.75C72.9115 27.1562 72.5208 27.5365 72.0625 27.8906C71.6042 28.2448 71.099 28.5573 70.5469 28.8281C69.9948 29.099 69.401 29.3125 68.7656 29.4688C68.1406 29.625 67.4948 29.7031 66.8281 29.7031C65.474 29.7031 64.2344 29.4583 63.1094 28.9688C61.9844 28.4688 61.0156 27.7812 60.2031 26.9062C59.401 26.0208 58.776 24.9792 58.3281 23.7812C57.8802 22.5833 57.6562 21.2812 57.6562 19.875ZM61.25 19.875C61.25 20.7188 61.375 21.5312 61.625 22.3125C61.8854 23.0938 62.2552 23.7865 62.7344 24.3906C63.224 24.9844 63.8229 25.4583 64.5312 25.8125C65.2396 26.1667 66.0417 26.3438 66.9375 26.3438C67.8229 26.3438 68.625 26.1719 69.3438 25.8281C70.0625 25.4844 70.6875 25.0365 71.2188 24.4844C71.7604 23.9323 72.2031 23.3177 72.5469 22.6406C72.8906 21.9531 73.125 21.2656 73.25 20.5781V19.2031C73.1354 18.5677 72.9167 17.8958 72.5938 17.1875C72.2812 16.4792 71.8646 15.8281 71.3438 15.2344C70.8333 14.6302 70.2188 14.1354 69.5 13.75C68.7812 13.3542 67.9688 13.1562 67.0625 13.1562C66.2083 13.1562 65.4271 13.3333 64.7188 13.6875C64.0104 14.0312 63.3958 14.5104 62.875 15.125C62.3646 15.7292 61.9635 16.4375 61.6719 17.25C61.3906 18.0625 61.25 18.9375 61.25 19.875ZM84.75 27.6406C84.75 26.9948 84.7656 26.3125 84.7969 25.5938C84.8177 25.2188 84.8333 24.7969 84.8438 24.3281C84.8542 23.849 84.8594 23.375 84.8594 22.9062C84.8594 22.5938 84.8542 22.099 84.8438 21.4219C84.8438 20.7344 84.8385 19.9219 84.8281 18.9844C84.8281 18.0469 84.8177 17.0052 84.7969 15.8594C84.7865 14.7135 84.7708 13.5208 84.75 12.2812C84.7396 11.0312 84.724 9.76042 84.7031 8.46875C84.6927 7.17708 84.6771 5.91146 84.6562 4.67188C84.25 4.68229 83.8385 4.70833 83.4219 4.75C83.0052 4.78125 82.5781 4.79688 82.1406 4.79688C81.9531 4.79688 81.7604 4.76562 81.5625 4.70312C81.375 4.64062 81.2031 4.54688 81.0469 4.42188C80.8906 4.28646 80.7604 4.10938 80.6562 3.89062C80.5521 3.67188 80.5 3.40625 80.5 3.09375C80.5 2.54167 80.6458 2.125 80.9375 1.84375C81.2396 1.55208 81.5885 1.40625 81.9844 1.40625C82.349 1.40625 82.7083 1.42708 83.0625 1.46875C83.4167 1.51042 83.7917 1.53125 84.1875 1.53125C84.4792 1.53125 84.7344 1.52604 84.9531 1.51562C85.1719 1.50521 85.3802 1.49479 85.5781 1.48438C85.7865 1.46354 86.0052 1.44792 86.2344 1.4375C86.4635 1.41667 86.7396 1.40625 87.0625 1.40625C87.5 1.40625 87.8542 1.54688 88.125 1.82812C88.4062 2.09896 88.5469 2.52083 88.5469 3.09375C88.5469 3.30208 88.526 3.50521 88.4844 3.70312C88.4531 3.90104 88.4115 4.09896 88.3594 4.29688C88.3177 4.49479 88.276 4.69792 88.2344 4.90625C88.2031 5.10417 88.1823 5.30729 88.1719 5.51562V26C88.599 25.875 88.9375 25.7812 89.1875 25.7188C89.4479 25.6562 89.6719 25.625 89.8594 25.625C90.9531 25.625 91.5 26.1979 91.5 27.3438C91.5 27.8125 91.3385 28.1771 91.0156 28.4375C90.7031 28.6875 90.25 28.8854 89.6562 29.0312L88.0938 29.4375C87.7396 29.5521 87.4635 29.625 87.2656 29.6562C87.0677 29.6875 86.8542 29.7031 86.625 29.7031C86.2917 29.7031 86.0052 29.6406 85.7656 29.5156C85.5365 29.3906 85.3438 29.2292 85.1875 29.0312C85.0417 28.8229 84.9323 28.599 84.8594 28.3594C84.7865 28.1198 84.75 27.8802 84.75 27.6406ZM100.656 7.71875C100.406 7.83333 100.146 7.89062 99.875 7.89062C99.6042 7.88021 99.3542 7.82292 99.125 7.71875C98.9062 7.60417 98.7135 7.44271 98.5469 7.23438C98.3802 7.02604 98.276 6.77604 98.2344 6.48438C98.2031 6.28646 98.2083 6.0625 98.25 5.8125C98.3021 5.55208 98.3646 5.29167 98.4375 5.03125C98.5208 4.76042 98.5938 4.5 98.6562 4.25C98.7292 3.98958 98.776 3.75521 98.7969 3.54688C98.8281 3.07812 98.9688 2.6875 99.2188 2.375C99.4688 2.0625 99.8438 1.86979 100.344 1.79688C100.708 1.73438 101.052 1.75521 101.375 1.85938C101.698 1.96354 101.938 2.19271 102.094 2.54688C102.146 2.66146 102.188 2.79688 102.219 2.95312C102.26 3.09896 102.292 3.22917 102.312 3.34375C102.323 3.44792 102.318 3.57812 102.297 3.73438C102.286 3.89062 102.26 4.05729 102.219 4.23438C102.177 4.40104 102.125 4.57292 102.062 4.75C102.01 4.91667 101.958 5.0625 101.906 5.1875C101.823 5.36458 101.766 5.55729 101.734 5.76562C101.714 5.96354 101.688 6.14583 101.656 6.3125C101.625 6.47917 101.594 6.63021 101.562 6.76562C101.531 6.90104 101.479 7.02604 101.406 7.14062C101.344 7.25521 101.25 7.35938 101.125 7.45312C101.01 7.54688 100.854 7.63542 100.656 7.71875ZM97.9844 28.0781C97.9844 27.8177 97.9948 27.599 98.0156 27.4219C98.0469 27.2448 98.0729 27.0521 98.0938 26.8438C98.125 26.625 98.151 26.3698 98.1719 26.0781C98.2031 25.7865 98.2188 25.3906 98.2188 24.8906C98.2188 23.026 98.2135 21.1771 98.2031 19.3438C98.1927 17.5 98.1667 15.5521 98.125 13.5C97.9688 13.5104 97.7917 13.5208 97.5938 13.5312C97.3958 13.5417 97.1875 13.5521 96.9688 13.5625C96.7604 13.5625 96.5573 13.5677 96.3594 13.5781C96.1615 13.5781 95.9844 13.5781 95.8281 13.5781C95.6406 13.5781 95.4479 13.5521 95.25 13.5C95.0625 13.4375 94.8906 13.3385 94.7344 13.2031C94.5781 13.0677 94.4479 12.8958 94.3438 12.6875C94.2396 12.4688 94.1875 12.2031 94.1875 11.8906C94.1875 11.3385 94.3333 10.9219 94.625 10.6406C94.9271 10.349 95.2812 10.2031 95.6875 10.2031C96.0833 10.2031 96.474 10.224 96.8594 10.2656C97.2552 10.2969 97.6406 10.3125 98.0156 10.3125C98.401 10.3125 98.7865 10.2969 99.1719 10.2656C99.5573 10.224 99.9219 10.2031 100.266 10.2031C100.797 10.2031 101.177 10.3438 101.406 10.625C101.635 10.9062 101.75 11.2969 101.75 11.7969C101.75 12.224 101.714 12.6458 101.641 13.0625C101.568 13.4688 101.531 13.9062 101.531 14.375C101.531 15.3125 101.526 16.2552 101.516 17.2031C101.505 18.151 101.495 19.1146 101.484 20.0938C101.484 21.0729 101.479 22.0729 101.469 23.0938C101.469 24.1146 101.479 25.1667 101.5 26.25C101.667 26.2396 101.818 26.2135 101.953 26.1719C102.089 26.1302 102.219 26.0885 102.344 26.0469C102.469 25.9948 102.599 25.9531 102.734 25.9219C102.88 25.8802 103.042 25.8594 103.219 25.8594C103.49 25.8594 103.708 25.8906 103.875 25.9531C104.052 26.0156 104.193 26.1042 104.297 26.2188C104.401 26.3229 104.479 26.4583 104.531 26.625C104.583 26.7812 104.63 26.9531 104.672 27.1406C104.745 27.6302 104.625 28.0208 104.312 28.3125C104 28.6042 103.573 28.8333 103.031 29C102.719 29.0833 102.396 29.1667 102.062 29.25C101.74 29.3333 101.432 29.4062 101.141 29.4688C100.849 29.5417 100.583 29.599 100.344 29.6406C100.104 29.6823 99.9167 29.7031 99.7812 29.7031C99.1667 29.7031 98.7135 29.5573 98.4219 29.2656C98.1302 28.9844 97.9844 28.5885 97.9844 28.0781ZM108.953 27.5156C108.953 27.1719 108.974 26.8646 109.016 26.5938C109.068 26.3229 109.198 26.0885 109.406 25.8906C110.354 24.7448 111.333 23.6094 112.344 22.4844C113.365 21.349 114.349 20.2552 115.297 19.2031C116.245 18.1406 117.12 17.1354 117.922 16.1875C118.734 15.2396 119.406 14.3698 119.938 13.5781L118.312 13.625C117.708 13.6458 117.109 13.6615 116.516 13.6719C115.932 13.6823 115.375 13.6927 114.844 13.7031C114.312 13.7135 113.828 13.724 113.391 13.7344C112.953 13.7344 112.578 13.7344 112.266 13.7344H112.109C112.109 14.026 112.13 14.3438 112.172 14.6875C112.214 15.0208 112.234 15.3594 112.234 15.7031C112.234 15.901 112.193 16.0938 112.109 16.2812C112.026 16.4583 111.906 16.6198 111.75 16.7656C111.604 16.901 111.422 17.0156 111.203 17.1094C110.984 17.1927 110.74 17.2344 110.469 17.2344C110.26 17.2344 110.052 17.1927 109.844 17.1094C109.635 17.026 109.443 16.9115 109.266 16.7656C109.099 16.6198 108.958 16.4531 108.844 16.2656C108.74 16.0677 108.688 15.8594 108.688 15.6406C108.688 15.3385 108.698 15.0833 108.719 14.875C108.75 14.6667 108.766 14.3958 108.766 14.0625C108.766 13.7917 108.755 13.5625 108.734 13.375C108.714 13.1771 108.688 12.9896 108.656 12.8125C108.625 12.625 108.599 12.4323 108.578 12.2344C108.557 12.026 108.547 11.7708 108.547 11.4688C108.547 11.3021 108.583 11.125 108.656 10.9375C108.729 10.7396 108.844 10.5625 109 10.4062C109.156 10.2396 109.359 10.1042 109.609 10C109.859 9.89583 110.167 9.84375 110.531 9.84375C110.771 9.84375 111 9.89062 111.219 9.98438C111.448 10.0677 111.651 10.1875 111.828 10.3438C111.901 10.3333 111.974 10.3281 112.047 10.3281C112.13 10.3177 112.214 10.3125 112.297 10.3125H122.656C122.917 10.3125 123.167 10.349 123.406 10.4219C123.656 10.4844 123.87 10.5885 124.047 10.7344C124.234 10.8802 124.38 11.0729 124.484 11.3125C124.599 11.5521 124.656 11.849 124.656 12.2031C124.656 12.5573 124.51 12.9896 124.219 13.5C123.938 14 123.609 14.5312 123.234 15.0938C122.578 16 121.828 16.9271 120.984 17.875C120.141 18.8229 119.271 19.776 118.375 20.7344C117.479 21.6823 116.589 22.625 115.703 23.5625C114.828 24.4896 114.031 25.3906 113.312 26.2656C114.271 26.2656 115.188 26.2604 116.062 26.25C116.938 26.2292 117.734 26.2083 118.453 26.1875C119.172 26.1562 119.786 26.125 120.297 26.0938C120.807 26.0521 121.172 26.0104 121.391 25.9688C121.547 25.9479 121.719 25.901 121.906 25.8281C122.104 25.7552 122.318 25.6875 122.547 25.625C122.693 25.1875 122.828 24.7448 122.953 24.2969C123.089 23.849 123.255 23.3958 123.453 22.9375C123.599 22.6146 123.854 22.3906 124.219 22.2656C124.594 22.1406 125.115 22.2135 125.781 22.4844C125.99 22.5781 126.182 22.6927 126.359 22.8281C126.547 22.9531 126.698 23.099 126.812 23.2656C126.927 23.4323 127 23.6198 127.031 23.8281C127.062 24.026 127.031 24.2396 126.938 24.4688C126.823 24.7188 126.714 24.9375 126.609 25.125C126.505 25.3021 126.396 25.4844 126.281 25.6719C126.177 25.849 126.068 26.0417 125.953 26.25C125.839 26.4479 125.719 26.6875 125.594 26.9688C125.542 27.0938 125.495 27.2292 125.453 27.375C125.411 27.5208 125.365 27.6667 125.312 27.8125C125.271 28.0208 125.208 28.2135 125.125 28.3906L124.891 29C124.807 29.1875 124.693 29.349 124.547 29.4844C124.401 29.6198 124.229 29.724 124.031 29.7969C123.844 29.8698 123.63 29.901 123.391 29.8906C123.161 29.8906 122.922 29.8385 122.672 29.7344C122.443 29.6302 122.234 29.474 122.047 29.2656L111.625 29.4062C111.062 29.4062 110.609 29.349 110.266 29.2344C109.922 29.1094 109.651 28.9583 109.453 28.7812C109.255 28.5938 109.12 28.3906 109.047 28.1719C108.984 27.9427 108.953 27.724 108.953 27.5156ZM129.344 19.875C129.344 18.4583 129.583 17.1406 130.062 15.9219C130.542 14.7031 131.198 13.6458 132.031 12.75C132.875 11.8542 133.859 11.151 134.984 10.6406C136.12 10.1302 137.344 9.875 138.656 9.875C139.323 9.875 139.958 9.95312 140.562 10.1094C141.177 10.2656 141.745 10.474 142.266 10.7344C142.797 10.9844 143.271 11.2708 143.688 11.5938C144.115 11.9167 144.479 12.25 144.781 12.5938C144.771 12.4479 144.766 12.2917 144.766 12.125C144.766 11.9583 144.766 11.8125 144.766 11.6875C144.766 11.4271 144.802 11.1875 144.875 10.9688C144.948 10.7396 145.062 10.5417 145.219 10.375C145.375 10.2083 145.573 10.0781 145.812 9.98438C146.052 9.88021 146.344 9.82812 146.688 9.82812C146.979 9.82812 147.24 9.88542 147.469 10C147.708 10.1042 147.911 10.2396 148.078 10.4062C148.245 10.5625 148.375 10.7344 148.469 10.9219C148.562 11.099 148.609 11.2604 148.609 11.4062C148.609 11.7604 148.589 12.1198 148.547 12.4844C148.516 12.8385 148.49 13.1979 148.469 13.5625C148.469 14.7083 148.458 15.724 148.438 16.6094C148.427 17.4844 148.411 18.2917 148.391 19.0312C148.37 19.5312 148.354 20.0521 148.344 20.5938C148.333 21.125 148.328 21.6146 148.328 22.0625C148.328 23.0729 148.328 23.875 148.328 24.4688C148.328 25.0625 148.354 25.4948 148.406 25.7656C148.5 25.7448 148.635 25.6979 148.812 25.625C149 25.5521 149.172 25.474 149.328 25.3906C149.474 25.3385 149.62 25.2865 149.766 25.2344C149.911 25.1823 150.094 25.1562 150.312 25.1562C150.562 25.1562 150.781 25.2135 150.969 25.3281C151.156 25.4323 151.312 25.5729 151.438 25.75C151.573 25.9167 151.672 26.1094 151.734 26.3281C151.797 26.5365 151.828 26.7396 151.828 26.9375C151.828 27.2188 151.76 27.5052 151.625 27.7969C151.49 28.0781 151.24 28.2812 150.875 28.4062C150.562 28.5208 150.245 28.6406 149.922 28.7656C149.599 28.8906 149.271 29.0052 148.938 29.1094C148.615 29.2135 148.286 29.3021 147.953 29.375C147.63 29.4479 147.297 29.4844 146.953 29.4844C146.547 29.4844 146.214 29.401 145.953 29.2344C145.693 29.0677 145.49 28.8542 145.344 28.5938C145.198 28.3229 145.094 28.026 145.031 27.7031C144.969 27.3802 144.932 27.0625 144.922 26.75C144.599 27.1562 144.208 27.5365 143.75 27.8906C143.292 28.2448 142.786 28.5573 142.234 28.8281C141.682 29.099 141.089 29.3125 140.453 29.4688C139.828 29.625 139.182 29.7031 138.516 29.7031C137.161 29.7031 135.922 29.4583 134.797 28.9688C133.672 28.4688 132.703 27.7812 131.891 26.9062C131.089 26.0208 130.464 24.9792 130.016 23.7812C129.568 22.5833 129.344 21.2812 129.344 19.875ZM132.938 19.875C132.938 20.7188 133.062 21.5312 133.312 22.3125C133.573 23.0938 133.943 23.7865 134.422 24.3906C134.911 24.9844 135.51 25.4583 136.219 25.8125C136.927 26.1667 137.729 26.3438 138.625 26.3438C139.51 26.3438 140.312 26.1719 141.031 25.8281C141.75 25.4844 142.375 25.0365 142.906 24.4844C143.448 23.9323 143.891 23.3177 144.234 22.6406C144.578 21.9531 144.812 21.2656 144.938 20.5781V19.2031C144.823 18.5677 144.604 17.8958 144.281 17.1875C143.969 16.4792 143.552 15.8281 143.031 15.2344C142.521 14.6302 141.906 14.1354 141.188 13.75C140.469 13.3542 139.656 13.1562 138.75 13.1562C137.896 13.1562 137.115 13.3333 136.406 13.6875C135.698 14.0312 135.083 14.5104 134.562 15.125C134.052 15.7292 133.651 16.4375 133.359 17.25C133.078 18.0625 132.938 18.9375 132.938 19.875ZM158.047 22.2031C158.245 22.9844 158.536 23.6406 158.922 24.1719C159.318 24.6927 159.76 25.1146 160.25 25.4375C160.74 25.7604 161.255 25.9948 161.797 26.1406C162.349 26.276 162.885 26.3438 163.406 26.3438C164.219 26.3438 164.943 26.276 165.578 26.1406C166.214 25.9948 166.755 25.8229 167.203 25.625C167.661 25.4167 168.031 25.2031 168.312 24.9844C168.594 24.7656 168.792 24.5729 168.906 24.4062C169.01 24.25 169.125 24.1042 169.25 23.9688C169.385 23.8229 169.526 23.6979 169.672 23.5938C169.828 23.4792 169.979 23.3906 170.125 23.3281C170.281 23.2656 170.427 23.2344 170.562 23.2344C171.083 23.2344 171.484 23.3906 171.766 23.7031C172.057 24.0052 172.203 24.4167 172.203 24.9375C172.203 25.1354 172.13 25.3854 171.984 25.6875C171.839 25.9896 171.568 26.3229 171.172 26.6875C170.734 27.0938 170.245 27.4792 169.703 27.8438C169.172 28.2083 168.583 28.5312 167.938 28.8125C167.292 29.0833 166.589 29.2969 165.828 29.4531C165.078 29.6198 164.266 29.7031 163.391 29.7031C162.359 29.7031 161.417 29.5625 160.562 29.2812C159.708 29.0104 158.943 28.6406 158.266 28.1719C157.589 27.6927 157 27.1406 156.5 26.5156C156 25.8906 155.583 25.224 155.25 24.5156C154.917 23.8073 154.667 23.0781 154.5 22.3281C154.333 21.5781 154.25 20.849 154.25 20.1406C154.25 18.599 154.5 17.2083 155 15.9688C155.5 14.7188 156.188 13.651 157.062 12.7656C157.938 11.8802 158.974 11.1979 160.172 10.7188C161.37 10.2396 162.667 10 164.062 10C165.062 10 166 10.151 166.875 10.4531C167.75 10.7448 168.526 11.1615 169.203 11.7031C169.891 12.2344 170.464 12.875 170.922 13.625C171.391 14.3646 171.719 15.1823 171.906 16.0781C172.115 16.2552 172.266 16.4896 172.359 16.7812C172.464 17.0625 172.516 17.3438 172.516 17.625C172.516 18.0938 172.354 18.4792 172.031 18.7812C171.719 19.0729 171.323 19.276 170.844 19.3906C169.792 19.6615 168.74 19.9115 167.688 20.1406C166.635 20.3698 165.578 20.5938 164.516 20.8125C163.453 21.0312 162.38 21.2552 161.297 21.4844C160.224 21.7135 159.141 21.9531 158.047 22.2031ZM157.781 19.3125C159.552 18.8958 161.344 18.5052 163.156 18.1406C164.969 17.776 166.812 17.3698 168.688 16.9219C168.51 16.4427 168.271 15.9896 167.969 15.5625C167.667 15.125 167.312 14.7448 166.906 14.4219C166.5 14.099 166.047 13.8438 165.547 13.6562C165.057 13.4688 164.526 13.375 163.953 13.375C163.068 13.375 162.26 13.5208 161.531 13.8125C160.812 14.0938 160.188 14.4948 159.656 15.0156C159.125 15.526 158.698 16.151 158.375 16.8906C158.052 17.6198 157.854 18.4271 157.781 19.3125ZM158.719 6.71875C158.229 6.71875 157.849 6.58333 157.578 6.3125C157.307 6.04167 157.172 5.6875 157.172 5.25C157.172 5.03125 157.193 4.84375 157.234 4.6875C157.276 4.52083 157.344 4.36979 157.438 4.23438C157.531 4.08854 157.651 3.94792 157.797 3.8125C157.943 3.67708 158.125 3.52604 158.344 3.35938C158.719 3.06771 159.052 2.8125 159.344 2.59375C159.635 2.375 159.901 2.17188 160.141 1.98438C160.391 1.78646 160.62 1.59896 160.828 1.42188C161.047 1.24479 161.266 1.04688 161.484 0.828125C161.828 0.494792 162.156 0.276042 162.469 0.171875C162.792 0.0572917 163.135 0 163.5 0C163.865 0 164.193 0.0885417 164.484 0.265625C164.776 0.442708 165.073 0.671875 165.375 0.953125C165.531 1.10938 165.745 1.30729 166.016 1.54688C166.286 1.77604 166.568 2.01042 166.859 2.25C167.151 2.47917 167.427 2.69271 167.688 2.89062C167.948 3.07812 168.146 3.21354 168.281 3.29688C168.75 3.57812 169.109 3.88542 169.359 4.21875C169.62 4.54167 169.75 4.91146 169.75 5.32812C169.75 5.76562 169.583 6.11458 169.25 6.375C168.917 6.625 168.51 6.75 168.031 6.75C167.927 6.75 167.807 6.73438 167.672 6.70312C167.536 6.67188 167.401 6.63542 167.266 6.59375C167.13 6.54167 167 6.48438 166.875 6.42188C166.75 6.34896 166.646 6.27083 166.562 6.1875C166.354 5.98958 166.115 5.77604 165.844 5.54688C165.583 5.31771 165.312 5.08854 165.031 4.85938C164.76 4.63021 164.484 4.41146 164.203 4.20312C163.932 3.99479 163.677 3.8125 163.438 3.65625C163.24 3.78125 163.005 3.94271 162.734 4.14062C162.474 4.32812 162.203 4.53125 161.922 4.75C161.641 4.95833 161.359 5.17708 161.078 5.40625C160.807 5.63542 160.562 5.85417 160.344 6.0625C160.177 6.22917 159.969 6.38021 159.719 6.51562C159.469 6.65104 159.135 6.71875 158.719 6.71875Z" fill="white"/>
</svg>
